<?xml version="1.0" encoding="UTF-8"?>
<svg version="1.1" xmlns="http://www.w3.org/2000/svg" width="512" height="512">
<path d="M0 0 C8.02331647 3.08852097 11.67302424 9.1782728 15.24609375 16.58203125 C24.51086669 35.76772253 37.32071385 52.6496905 52 68 C52.87398437 68.92683594 53.74796875 69.85367188 54.6484375 70.80859375 C61.11692189 77.49522351 68.08062631 83.14350567 75.44189453 88.80126953 C77.52562561 90.40439074 79.59314001 92.01887755 81.625 93.6875 C82.19476563 94.14511719 82.76453125 94.60273437 83.3515625 95.07421875 C89.15383056 101.85269778 89.52975336 108.33507299 89.25 117 C89.1675 120.63 89.085 124.26 89 128 C77.78 128.33 66.56 128.66 55 129 C62.52088543 136.28572959 62.52088543 136.28572959 70.07617188 143.53564453 C79.79430121 152.99225262 87.01829235 163.52019665 90 177 C90.52207031 176.49210938 91.04414063 175.98421875 91.58203125 175.4609375 C102.22281756 165.50965923 114.17941012 159.3838733 128.875 159.5625 C130.19153564 159.57385986 130.19153564 159.57385986 131.53466797 159.58544922 C143.96151562 159.90066457 152.86672264 165.24448176 163 172 C163.10054688 171.29101562 163.20109375 170.58203125 163.3046875 169.8515625 C164.33816434 165.61314625 166.60563724 162.24858252 168.8203125 158.5234375 C170.37001627 155.96298798 170.37001627 155.96298798 169 153 C168.15035505 139.29425192 168.81651089 127.99815905 178.02734375 117.06640625 C184.35441705 110.43864035 191.06654163 106.26501858 200 104 C201.32 104 202.64 104 204 104 C204.309375 103.01 204.309375 103.01 204.625 102 C208.93973997 92.58602189 216.48284802 85.69528499 225.9375 81.5625 C236.08748785 78.26482462 248.8074692 78.38495205 258.61328125 82.6796875 C266.22606057 86.89101223 275.05605906 93.58278587 277.6875 102.26953125 C277.790625 102.84058594 277.89375 103.41164063 278 104 C279.11375 104.061875 280.2275 104.12375 281.375 104.1875 C290.82432285 105.42074496 298.7035548 111.0895611 305 118 C311.06600832 126.28718054 313.34698959 134.00534869 313.1875 144.1875 C313.18685547 144.98091797 313.18621094 145.77433594 313.18554688 146.59179688 C313.14103241 152.48254467 313.14103241 152.48254467 312.42016602 155.12744141 C311.76253639 157.09697258 311.76253639 157.09697258 313.109375 159.04296875 C313.65078125 159.75066406 314.1921875 160.45835937 314.75 161.1875 C321.55261308 170.99591886 322.26011918 181.28895862 321 193 C320.07421875 196.0703125 320.07421875 196.0703125 319.0625 198.5625 C318.13545545 200.78476408 318.13545545 200.78476408 318 203 C319.40990546 205.55771311 321.1276883 207.51055148 323.0703125 209.6875 C329.9529393 217.93550621 329.93188534 228.71133415 329.22314453 238.92919922 C328.27861091 247.69455394 323.9900734 254.69465958 318 261 C317.278125 261.4125 316.55625 261.825 315.8125 262.25 C313.61559311 264.00670284 313.61559311 264.00670284 313.53125 267.625 C313.50813076 269.08318727 313.49841757 270.54163032 313.5 272 C313.10273043 284.79910667 309.29700996 294.03404531 299.93359375 302.97265625 C289.76023084 311.54448797 278.95311464 313.13491284 266.04541016 312.24511719 C261.6256226 311.71546014 257.86391091 310.12592688 254 308 C252.68 307.34 251.36 306.68 250 306 C249.67 323.82 249.34 341.64 249 360 C251.64 360 254.28 360 257 360 C266.08584824 362.53723375 272.67898619 367.91324406 277.8359375 375.62109375 C279.19632657 378.40121772 279.54344063 380.9530532 280 384 C280.58358276 383.99111755 281.16716553 383.98223511 281.76843262 383.9730835 C287.86830809 383.88426475 293.96799844 383.82412307 300.06835938 383.78027344 C302.34187284 383.76021683 304.6153351 383.73296462 306.88867188 383.69824219 C310.16549349 383.64946288 313.44163025 383.62697103 316.71875 383.609375 C318.23172668 383.57840729 318.23172668 383.57840729 319.77526855 383.54681396 C327.22262203 383.54447115 332.58726881 385.00940107 338.2421875 389.96484375 C338.78101563 390.61582031 339.31984375 391.26679688 339.875 391.9375 C340.42929687 392.58589844 340.98359375 393.23429687 341.5546875 393.90234375 C346.03412097 400.40357557 345.67463728 407.37140917 345 415 C343.31914417 421.65959333 338.53621678 426.18547447 333 430 C328.17016497 432.57730066 323.39025299 432.29269683 318.05664062 432.28710938 C317.05932419 432.29394241 316.06200775 432.30077545 315.0344696 432.30781555 C312.87266793 432.32138736 310.71083429 432.33045103 308.54899597 432.33552551 C305.1278059 432.34381895 301.70688217 432.36432777 298.2857666 432.38806152 C289.79015712 432.44445772 281.29448293 432.47968071 272.79876709 432.51568604 C265.61724707 432.54692811 258.4358562 432.58611998 251.25444031 432.63594055 C247.88367995 432.65601223 244.51301958 432.66432892 241.14221191 432.67224121 C239.07592403 432.68521339 237.00963948 432.69873366 234.94335938 432.71289062 C234.00606491 432.71190872 233.06877045 432.71092682 232.10307312 432.70991516 C225.81519209 432.75327848 225.81519209 432.75327848 220 435 C218.60064987 437.79870027 218.74734595 439.90498792 219 443 C220.85342775 445.55949546 221.93756393 445.97918798 225 447 C227.26265018 447.10490781 229.5279814 447.1551945 231.79296875 447.17578125 C233.15952034 447.19899577 234.52605682 447.22311375 235.89257812 447.24804688 C238.03403608 447.28300047 240.17494328 447.31242081 242.31665039 447.32592773 C251.66862299 447.39635737 258.90738647 447.53730905 266.2421875 453.96484375 C266.78101563 454.61582031 267.31984375 455.26679688 267.875 455.9375 C268.42929687 456.58589844 268.98359375 457.23429687 269.5546875 457.90234375 C274.03412097 464.40357557 273.67463728 471.37140917 273 479 C271.31914417 485.65959333 266.53621678 490.18547447 261 494 C257.30171748 495.74567783 254.39195434 496.25143335 250.31584454 496.25726891 C248.60493162 496.26694224 248.60493162 496.26694224 246.85945481 496.276811 C245.61102683 496.2737138 244.36259885 496.2706166 243.07633972 496.26742554 C241.73303847 496.27116267 240.38973939 496.27576445 239.04644376 496.28115618 C235.3562474 496.29339384 231.66614164 496.29312482 227.97592962 496.29076743 C223.99558131 496.29035946 220.01526212 496.30139656 216.03492737 496.31088257 C208.23702829 496.32749778 200.43915944 496.33299235 192.64124414 496.33410732 C186.30275429 496.33505756 179.96427442 496.33916663 173.62578773 496.34550858 C155.65581446 496.36312248 137.68586507 496.37234722 119.7158831 496.37084763 C118.74705134 496.37076772 117.77821959 496.3706878 116.7800293 496.37060547 C115.32500766 496.37048283 115.32500766 496.37048283 113.84059165 496.37035771 C98.11968053 496.36954478 82.39886522 496.38868364 66.67798182 496.4168822 C50.53668093 496.44560645 34.39542677 496.45942275 18.25409967 496.45769465 C9.19165363 496.45703058 0.12930802 496.46253007 -8.93311501 496.48405075 C-16.64909023 496.50225652 -24.3649195 496.50661488 -32.08090691 496.4930319 C-36.01712787 496.48649914 -39.95306878 496.48639595 -43.88926315 496.5037384 C-47.49489445 496.51946093 -51.10002344 496.51661438 -54.70564242 496.49917014 C-56.62318479 496.49464665 -58.54074269 496.5097641 -60.45822459 496.52564943 C-68.50525229 496.46120218 -74.01928104 495.48833038 -80.2421875 490.03515625 C-80.78101562 489.38417969 -81.31984375 488.73320312 -81.875 488.0625 C-82.42929688 487.41410156 -82.98359375 486.76570313 -83.5546875 486.09765625 C-86.82070139 481.35752258 -87.23166943 477.39431465 -87.125 471.6875 C-87.10695312 470.43324219 -87.08890625 469.17898438 -87.0703125 467.88671875 C-87.04710937 466.93410156 -87.02390625 465.98148437 -87 465 C-87.57105469 464.99635437 -88.14210937 464.99270874 -88.73046875 464.98895264 C-94.70109016 464.94697912 -100.67095345 464.87753048 -106.64111328 464.79248047 C-108.86597086 464.76434228 -111.09092707 464.74309235 -113.31591797 464.72900391 C-116.52362303 464.70747568 -119.73015103 464.66077322 -122.9375 464.609375 C-123.92427734 464.60814636 -124.91105469 464.60691772 -125.92773438 464.60565186 C-133.25209038 464.45206754 -138.67607121 462.91278081 -144.2421875 458.03515625 C-144.78101563 457.38417969 -145.31984375 456.73320312 -145.875 456.0625 C-146.42929688 455.41410156 -146.98359375 454.76570313 -147.5546875 454.09765625 C-152.03412097 447.59642443 -151.67463728 440.62859083 -151 433 C-149.31914417 426.34040667 -144.53621678 421.81452553 -139 418 C-134.89530099 415.99460191 -131.45074078 415.72471246 -126.90625 415.65625 C-126.23710571 415.6416272 -125.56796143 415.62700439 -124.87854004 415.61193848 C-122.03493641 415.55008856 -119.19112369 415.51018894 -116.34716797 415.46826172 C-114.26247291 415.43436812 -112.17821774 415.38930185 -110.09375 415.34375 C-108.85302734 415.32505859 -107.61230469 415.30636719 -106.33398438 415.28710938 C-103.10546557 415.00908227 -100.86532941 414.4838782 -98 413 C-96.14600339 409.87747939 -95.74587638 406.59141278 -95.125 403.0625 C-93.79246323 396.19637544 -90.39292562 391.73260819 -85.08203125 387.32421875 C-81.3710949 384.96397968 -77.25282429 383.97549692 -73 383 C-73.34933594 382.32453125 -73.69867188 381.6490625 -74.05859375 380.953125 C-74.51363281 380.06109375 -74.96867187 379.1690625 -75.4375 378.25 C-75.88996094 377.36828125 -76.34242187 376.4865625 -76.80859375 375.578125 C-80.82764138 366.88116948 -80.43210057 353.94689658 -77.4375 344.9375 C-73.56010553 336.08456788 -67.19999669 329.09278907 -59 324 C-56.73046875 323.3125 -56.73046875 323.3125 -55 323 C-54.938125 321.88625 -54.87625 320.7725 -54.8125 319.625 C-53.57925504 310.17567715 -47.9104389 302.2964452 -41 296 C-32.39776292 289.70337819 -25.79936427 288 -15 288 C-15 277.44 -15 266.88 -15 256 C-44.04 256 -73.08 256 -103 256 C-103 235.74762152 -100.24690133 223.98223456 -86.28515625 209.89453125 C-84.22303217 207.85488658 -82.14651625 205.82977102 -80.0625 203.8125 C-76.411875 200.244375 -72.76125 196.67625 -69 193 C-85.83 192.505 -85.83 192.505 -103 192 C-103.60304701 171.94868679 -103.60304701 171.94868679 -99 163 C-98.649375 162.31035156 -98.29875 161.62070313 -97.9375 160.91015625 C-90.97380915 148.69951779 -78.84563477 138.76289834 -69 129 C-85.83 128.505 -85.83 128.505 -103 128 C-103.0825 124.37 -103.165 120.74 -103.25 117 C-103.28641602 115.87207031 -103.32283203 114.74414062 -103.36035156 113.58203125 C-103.4448403 105.85267441 -102.18424862 100.56834087 -96.9921875 94.75 C-96.29351562 94.1725 -95.59484375 93.595 -94.875 93 C-94.08738281 92.33871094 -93.29976562 91.67742187 -92.48828125 90.99609375 C-89.17525581 88.33839202 -85.85439971 85.69089499 -82.52734375 83.05078125 C-78.19332982 79.53400024 -74.07416199 75.8130756 -70 72 C-69.06285156 71.12859375 -68.12570313 70.2571875 -67.16015625 69.359375 C-50.68829876 53.68449885 -37.27269542 33.99366947 -27.69848633 13.41845703 C-21.86613182 1.53948265 -12.6874406 -1.40819653 0 0 Z M54 192 C57.74288574 196.36670004 61.31403652 200.43141441 65.375 204.4375 C66.68597656 205.73494141 66.68597656 205.73494141 68.0234375 207.05859375 C69.00183594 208.01958984 69.00183594 208.01958984 70 209 C73.00085712 207.49957144 73.28257944 205.25703295 74.5 202.1875 C75.89464063 198.69664647 77.31626618 195.36746764 79 192 C70.75 192 62.5 192 54 192 Z M1 256 C0.773125 261.630625 0.54625 267.26125 0.3125 273.0625 C0.21235596 274.82601807 0.11221191 276.58953613 0.0090332 278.40649414 C-0.13549079 282.80802135 -0.00762528 286.6866519 1 291 C3.62513712 293.7910666 5.91313167 295.19491234 9.38598633 296.77587891 C12.1071847 298.05019371 12.86886432 298.81145539 14.375 301.3125 C18.08005221 305.10576774 21.5123526 304.87132499 26.64453125 305.45703125 C34.60703227 306.74549183 41.45787204 311.23744649 47 317 C47.66 317.99 48.32 318.98 49 320 C51.69767294 320.28380834 54.23654556 320.41025861 56.9375 320.4375 C68.4648102 320.86094234 77.61695903 323.71186138 86 332 C95.21776137 342.83176628 97.04490156 353.01364065 96.22900391 366.875 C95.55243722 373.15307722 92.78073065 378.43853869 90 384 C100.23 384 110.46 384 121 384 C121 368.16 121 352.32 121 336 C118.03 335.01 115.06 334.02 112 333 C96.18612542 326.11301083 86.34030006 315.6686102 78 301 C77.26330078 299.73736328 77.26330078 299.73736328 76.51171875 298.44921875 C69.33807685 285.23461525 67.32676898 270.73620357 65 256 C43.88 256 22.76 256 1 256 Z M180 301 C179.59910156 301.67804688 179.19820313 302.35609375 178.78515625 303.0546875 C168.39154206 320.07099009 155.82904944 329.72365019 137 336 C137 351.84 137 367.68 137 384 C138.55243375 381.67134937 139.66383201 379.63740574 140.8125 377.125 C143.14471138 372.40875032 146.06717008 369.150494 150.625 366.4375 C153.36853697 363.62176469 153.5761457 362.21744472 154.375 358.4375 C156.45457279 348.86912858 161.71103006 340.39938879 170 335 C181.18770824 328.64413479 192.59330202 327.23974781 205.27734375 329.61328125 C213.46409037 332.2795531 219.93701062 337.70665134 225.8125 343.875 C228.1718459 346.43661147 228.1718459 346.43661147 233 348 C233 333.81 233 319.62 233 305 C229.37 306.65 225.74 308.3 222 310 C211.31158165 312.67210459 198.80052724 312.23329125 189 307 C185.89301374 305.13216368 182.91274228 303.15758687 180 301 Z " fill="#000000" transform="translate(159,8)"/>
<path d="M0 0 C0.67340175 -0.00436032 1.3468035 -0.00872064 2.04061136 -0.0132131 C4.30751255 -0.02420168 6.5738096 -0.01373101 8.84070683 -0.00342751 C10.47814451 -0.00688266 12.11557986 -0.01164627 13.75301033 -0.01760924 C18.26080764 -0.03016859 22.76841517 -0.02392649 27.27621329 -0.01465058 C32.13451133 -0.00788053 36.99277606 -0.01833119 41.85106754 -0.02659035 C51.37199509 -0.03995206 60.89285181 -0.03703901 70.41378217 -0.02835242 C78.15011144 -0.02158546 85.88642081 -0.02065488 93.62275219 -0.02392387 C95.27250145 -0.02461342 95.27250145 -0.02461342 96.95557897 -0.0253169 C99.18967319 -0.02627605 101.42376739 -0.02724869 103.6578616 -0.02823468 C124.62273937 -0.03679581 145.58757784 -0.0269433 166.55244917 -0.01083358 C184.55082221 0.00256839 202.5491372 0.0002439 220.54750919 -0.01358986 C241.43429412 -0.02963611 262.32104455 -0.0359698 283.20783478 -0.02675307 C285.43415327 -0.02579739 287.66047177 -0.02485428 289.88679028 -0.02392387 C291.52999267 -0.02322963 291.52999267 -0.02322963 293.20639108 -0.02252137 C300.93510529 -0.01992848 308.66379767 -0.02430896 316.39250851 -0.03136253 C325.80891094 -0.03976721 335.22523832 -0.03751923 344.64163213 -0.0215203 C349.44827885 -0.01362339 354.25480034 -0.01057011 359.06144619 -0.02046776 C363.45885774 -0.02938591 367.85602761 -0.0245295 372.25341714 -0.0085351 C373.84691327 -0.00517503 375.44042967 -0.00690878 377.03391283 -0.01416247 C379.19540695 -0.02324945 381.35606692 -0.0139654 383.51751709 0 C384.71944197 0.00048706 385.92136684 0.00097411 387.15971369 0.00147593 C390.64336487 0.41578099 392.53130787 1.28673618 395.32167912 3.37752342 C396.72625648 6.18667816 396.57063069 8.26562877 396.32167912 11.37752342 C394.54183507 14.51343912 393.79859705 15.21855078 390.32167912 16.37752342 C388.9055725 16.46912255 387.48557042 16.50645834 386.06650639 16.5088253 C384.76505428 16.51483757 384.76505428 16.51483757 383.43731022 16.5209713 C382.01362629 16.52017822 382.01362629 16.52017822 380.56118107 16.51936913 C379.05824245 16.52458076 379.05824245 16.52458076 377.52494144 16.52989769 C375.34617831 16.5372557 373.16740767 16.54260084 370.98863506 16.54618835 C367.53742865 16.55335144 364.08636462 16.56901773 360.63520145 16.58753014 C350.82148555 16.64000161 341.00784669 16.68796248 331.19399357 16.70345116 C325.19276649 16.71354406 319.1918962 16.74290424 313.1908102 16.78477097 C310.90596753 16.79706905 308.62107444 16.80220441 306.33619976 16.79997253 C303.13346399 16.79761431 299.93174762 16.81982762 296.72914982 16.84749413 C295.32064762 16.83759201 295.32064762 16.83759201 293.88369083 16.82748985 C286.77716759 16.92797556 281.46936989 18.61918115 276.07949162 23.34236717 C275.54066349 23.99334373 275.00183537 24.6443203 274.44667912 25.31502342 C273.89238224 25.96342186 273.33808537 26.6118203 272.76699162 27.27986717 C269.47503835 32.057648 269.08905832 35.93231104 269.19667912 41.69002342 C269.25855412 45.00033592 269.25855412 45.00033592 269.32167912 48.37752342 C263.71167912 48.37752342 258.10167912 48.37752342 252.32167912 48.37752342 C252.32167912 53.65752342 252.32167912 58.93752342 252.32167912 64.37752342 C254.29483097 64.36181297 256.26798283 64.34610252 258.30092716 64.329916 C264.82679305 64.28150278 271.35261637 64.24705196 277.87861252 64.22208691 C281.83459045 64.20644385 285.79037374 64.18523072 289.74623966 64.15120506 C293.56527267 64.11856264 297.38411868 64.10066017 301.20328045 64.09289169 C302.65891621 64.08735691 304.11454196 64.0765487 305.57009792 64.06033325 C307.61210814 64.03849321 309.65334982 64.03555911 311.69545841 64.03694725 C312.85683826 64.03028542 314.01821812 64.02362358 315.2147913 64.01675987 C318.67427997 64.4184665 320.54787966 65.30693074 323.32167912 67.37752342 C324.72625648 70.18667816 324.57063069 72.26562877 324.32167912 75.37752342 C322.54183507 78.51343912 321.79859705 79.21855078 318.32167912 80.37752342 C316.55505075 80.47320205 314.78500788 80.51023867 313.01579571 80.51453781 C311.90866966 80.51961235 310.80154361 80.5246869 309.66086829 80.52991521 C307.82894606 80.53066185 307.82894606 80.53066185 305.9600153 80.53142357 C304.01973298 80.53799695 304.01973298 80.53799695 302.04025304 80.54470313 C298.44238614 80.55667288 294.84453265 80.56231797 291.24664974 80.56688428 C287.36926105 80.57283865 283.49188841 80.5844487 279.61451054 80.59517479 C270.24821883 80.61969943 260.88192182 80.6343244 251.51560789 80.64723486 C248.87121694 80.65094622 246.22682651 80.65491948 243.58243608 80.65898752 C227.16807706 80.68421936 210.75371721 80.70627668 194.33934307 80.71871567 C190.5372311 80.72164545 186.73511915 80.7246071 182.93300724 80.72762108 C181.98799041 80.72836713 181.04297359 80.72911318 180.06931989 80.72988184 C164.75039732 80.7425436 149.4315906 80.77577802 134.11272223 80.81742291 C118.39299982 80.85980814 102.67333679 80.88340659 86.95355737 80.88863623 C78.12420619 80.89205382 69.29503619 80.90385016 60.46574116 80.93673897 C52.94871151 80.96469359 45.43190019 80.975759 37.91482259 80.96454351 C34.07815299 80.95934535 30.24194092 80.96231783 26.40533733 80.98700905 C22.24900827 81.01353529 18.09369286 81.00148111 13.93731022 80.98552513 C12.72049018 80.99940722 11.50367013 81.01328931 10.24997675 81.02759206 C1.17582063 80.94134927 1.17582063 80.94134927 -1.92773533 78.02702332 C-3.67832088 75.37752342 -3.67832088 75.37752342 -4.30332088 72.37752342 C-3.42229756 68.14861144 -2.17257943 66.945045 1.32167912 64.37752342 C5.20691772 63.68002241 9.02998061 63.79602865 12.96621037 63.88924217 C14.6535957 63.89985428 14.6535957 63.89985428 16.37506962 63.91068077 C19.9621206 63.93863198 23.54760124 64.00137626 27.13417912 64.06502342 C29.56840134 64.09010515 32.00264807 64.11291853 34.43691349 64.1333828 C40.39910556 64.1884618 46.36012625 64.27474348 52.32167912 64.37752342 C52.32167912 59.09752342 52.32167912 53.81752342 52.32167912 48.37752342 C50.17724056 48.39417801 50.17724056 48.39417801 47.98948002 48.41116905 C34.52584551 48.51246573 21.06225059 48.58775146 7.59832573 48.63658428 C0.67612045 48.66235839 -6.24580024 48.69749304 -13.16782284 48.75472069 C-19.84625639 48.80990812 -26.524333 48.83893408 -33.20300388 48.85190964 C-35.75276313 48.86115813 -38.30250594 48.87921802 -40.85213947 48.90617371 C-44.41980179 48.94239701 -47.9862371 48.9474713 -51.55405331 48.94515038 C-52.61141186 48.96312675 -53.66877041 48.98110313 -54.75817013 48.99962425 C-61.90988429 48.949182 -61.90988429 48.949182 -65.83452511 46.02954674 C-67.67832088 43.37752342 -67.67832088 43.37752342 -68.30332088 40.37752342 C-67.45713544 36.31583326 -65.87655993 34.97287106 -62.67832088 32.37752342 C-59.42368221 31.78157616 -59.42368221 31.78157616 -55.76035213 31.81111717 C-55.10306622 31.80548256 -54.4457803 31.79984795 -53.76857662 31.79404259 C-51.67525827 31.77766081 -49.58406317 31.79303508 -47.49082088 31.81502342 C-32.65300766 32.22152069 -32.65300766 32.22152069 -19.78208065 25.70027733 C-14.35426041 19.94144002 -12.43861901 13.29283366 -11.40097713 5.61189842 C-9.61837853 0.10029624 -5.14920157 0.0020869 0 0 Z " fill="#68D5F3" transform="translate(91.67832088470459,407.6224765777588)"/>
<path d="M0 0 C2.37182617 0.14331055 2.37182617 0.14331055 5 1 C6.6340332 3.03442383 6.6340332 3.03442383 8.05078125 5.70703125 C8.84488403 7.16713623 8.84488403 7.16713623 9.6550293 8.65673828 C10.47547729 10.21884033 10.47547729 10.21884033 11.3125 11.8125 C12.46819891 13.93271252 13.62702677 16.05122265 14.7890625 18.16796875 C15.34368164 19.1842334 15.89830078 20.20049805 16.46972656 21.24755859 C31.23729454 47.80939034 53.15984079 70.34485196 77.56640625 88.0546875 C80 90 80 90 82 93 C82 93.99 82 94.98 82 96 C63.52 96 45.04 96 26 96 C26 101.28 26 106.56 26 112 C27.95550781 111.83959229 29.91101563 111.67918457 31.92578125 111.51391602 C38.44231694 111.53072769 41.40017638 112.90031339 45.98583984 117.41038513 C46.7123877 118.19148148 47.43893555 118.97257782 48.1875 119.77734375 C48.97850098 120.57725235 49.76950195 121.37716095 50.58447266 122.2013092 C52.24313997 123.89042386 53.88623356 125.59495935 55.51416016 127.3137207 C57.99136943 129.92839052 60.51107373 132.49499621 63.04296875 135.05664062 C64.65631868 136.71093919 66.26708596 138.36776123 67.875 140.02734375 C68.6177417 140.79022202 69.3604834 141.55310028 70.12573242 142.33909607 C81 153.86195933 81 153.86195933 81 160 C62.85 160 44.7 160 26 160 C26 165.28 26 170.56 26 176 C27.75699219 175.64421875 29.51398438 175.2884375 31.32421875 174.921875 C40.00444717 174.93600643 44.56809336 179.95987923 50.53097534 185.78405762 C52.15290156 187.41837625 53.76294684 189.06456207 55.36157227 190.72167969 C57.80912176 193.24651509 60.31650068 195.69758454 62.83789062 198.1484375 C64.4232899 199.7460216 66.00481138 201.34746524 67.58203125 202.953125 C68.3287056 203.67864563 69.07537994 204.40416626 69.84468079 205.15167236 C76.22673738 211.91972116 75 213.40736612 75 224 C24.84 224 -25.32 224 -77 224 C-73.02150353 212.06451059 -63.37352188 203.71423014 -54.73510742 194.87011719 C-53.20222592 193.28885977 -51.68292916 191.69432017 -50.17749023 190.08691406 C-36.92183353 175.94639211 -36.92183353 175.94639211 -31.01220703 174.97265625 C-27.41015625 174.96875 -27.41015625 174.96875 -22 176 C-22 170.72 -22 165.44 -22 160 C-40.15 160 -58.3 160 -77 160 C-73.02150353 148.06451059 -63.37352188 139.71423014 -54.73510742 130.87011719 C-53.20222592 129.28885977 -51.68292916 127.69432017 -50.17749023 126.08691406 C-36.92183353 111.94639211 -36.92183353 111.94639211 -31.01220703 110.97265625 C-27.41015625 110.96875 -27.41015625 110.96875 -22 112 C-22 106.72 -22 101.44 -22 96 C-40.48 96 -58.96 96 -78 96 C-76.87784059 90.38920294 -75.41761938 89.29251691 -71.0625 86.25 C-69.8699151 85.37707703 -68.6798367 84.50072017 -67.4921875 83.62109375 C-66.90018555 83.18394043 -66.30818359 82.74678711 -65.69824219 82.29638672 C-62.36972838 79.75549996 -59.32821382 76.90384903 -56.25390625 74.06640625 C-54.2536994 72.23259442 -52.20656762 70.48962633 -50.125 68.75 C-29.44244728 50.65276637 -15.25966355 26.76731527 -2.14819336 2.98681641 C-1 1 -1 1 0 0 Z " fill="#8BC051" transform="translate(150,24)"/>
<path d="M0 0 C5.59538563 3.99238326 10.11428096 8.1196881 11.390625 15.15234375 C11.65008323 17.09486658 11.83167827 19.04746798 12 21 C13.16015625 20.94779297 13.16015625 20.94779297 14.34375 20.89453125 C24.45531735 20.63173061 30.77660956 22.02656689 38.234375 29.05859375 C43.18047783 34.49711833 44.70783847 39.78805032 44.47265625 47.109375 C43.77296821 51.38845888 42.07268463 54.95371892 40.09375 58.78515625 C38.85240656 60.88717894 38.85240656 60.88717894 39 63 C40.20739046 64.110682 41.46734831 65.16465549 42.75 66.1875 C46.64666709 69.48414932 48.76350554 72.4375513 51 77 C51.33 77.66 51.66 78.32 52 79 C53.11781756 88.19804163 50.91888261 94.87883724 45.33203125 102.1796875 C43.9373475 103.82945592 42.47523128 105.42184561 41 107 C41.72445312 107.49628906 42.44890625 107.99257812 43.1953125 108.50390625 C57.12786744 118.29384819 57.12786744 118.29384819 60 127 C60.94040971 134.0877195 60.45040513 139.95657165 56.5546875 146.03125 C52.57824709 151.06674238 47.93363081 154.51615455 42 157 C41.34 157 40.68 157 40 157 C40.433125 157.89138672 40.433125 157.89138672 40.875 158.80078125 C44.17260538 166.16314326 45.67763605 172.85574432 43.1171875 180.70703125 C39.87958562 187.85762878 35.40627345 192.71678661 28.1875 195.875 C22.11794135 197.8355731 15.80345947 198.09662581 9.875 195.5625 C2.93064602 191.59631409 -1.784332 185.59237874 -4 178 C-5.57456261 167.87059914 -7.05097015 154.87865668 -1.26171875 145.9375 C1.58527474 142.29870795 4.79368408 139.05830178 8.12695312 135.86572266 C11.07186887 132.93232249 13.54893158 129.67734697 16.0625 126.375 C16.90754505 125.29947364 17.75259681 124.22395256 18.59765625 123.1484375 C21.1418879 119.8140461 23.57992631 116.42520234 26 113 C25.43796875 112.74476563 24.8759375 112.48953125 24.296875 112.2265625 C21.70613518 110.84307219 19.54892155 109.20061417 17.25 107.375 C16.45078125 106.74335938 15.6515625 106.11171875 14.828125 105.4609375 C14.22484375 104.97882813 13.6215625 104.49671875 13 104 C12.5968457 104.87180908 12.5968457 104.87180908 12.18554688 105.76123047 C10.98573456 108.02693865 9.65370759 109.83937 8.03125 111.8203125 C7.46019531 112.52027344 6.88914062 113.22023438 6.30078125 113.94140625 C5.40939453 115.02228516 5.40939453 115.02228516 4.5 116.125 C3.90574219 116.85332031 3.31148438 117.58164063 2.69921875 118.33203125 C-1.67992666 123.67992666 -1.67992666 123.67992666 -4 126 C-4 99.27 -4 72.54 -4 45 C-9.28 45 -14.56 45 -20 45 C-20 61.17 -20 77.34 -20 94 C-23.94547853 90.05452147 -27.34486604 86.23467286 -30.75 81.875 C-31.24371094 81.25496094 -31.73742187 80.63492188 -32.24609375 79.99609375 C-34.32010354 77.3538621 -35.92964479 75.21106564 -37 72 C-38.15628906 72.97453125 -38.15628906 72.97453125 -39.3359375 73.96875 C-40.33882813 74.8040625 -41.34171875 75.639375 -42.375 76.5 C-43.37273437 77.3353125 -44.37046875 78.170625 -45.3984375 79.03125 C-48 81 -48 81 -50 81 C-44.05051837 88.84310897 -37.97418492 96.56526423 -31.73168945 104.17773438 C-30.71815925 105.415663 -29.71324954 106.660716 -28.71844482 107.91374207 C-27.03600884 110.01140225 -27.03600884 110.01140225 -25.18882751 111.87947083 C-19.30244042 118.38365743 -18.99665785 123.89339851 -19.140625 132.43359375 C-19.13867126 133.70670914 -19.13671753 134.97982452 -19.13470459 136.29151917 C-19.13869266 138.97511158 -19.15613611 141.65431351 -19.19726562 144.3371582 C-19.24829072 147.74791144 -19.2461445 151.15606398 -19.22665787 154.56706142 C-19.21378735 157.85608001 -19.24103184 161.14467413 -19.265625 164.43359375 C-19.26177795 165.64430038 -19.25793091 166.85500702 -19.25396729 168.10240173 C-19.41666449 176.53466727 -20.94942671 183.4844533 -26.70928955 189.90550232 C-31.94464616 194.90831039 -37.82757699 197.09700212 -45 197.4375 C-53.31972123 197.11898081 -58.24037761 193.23102901 -63.84765625 187.390625 C-65.56111279 183.83592872 -64.7496121 180.7225987 -64 177 C-63.75121094 175.75863281 -63.50242187 174.51726562 -63.24609375 173.23828125 C-63.11356201 172.60519043 -62.98103027 171.97209961 -62.84448242 171.31982422 C-57.95154487 147.1868113 -60.53691415 121.53336445 -72.3125 99.8125 C-76.41184674 92.12739423 -77.81285174 85.26638926 -75.32421875 76.6640625 C-72.94611676 71.19547554 -68.38030697 65.69015348 -63 63 C-64.27184253 59.03820789 -64.27184253 59.03820789 -65.80078125 55.171875 C-68.37928958 49.15942904 -69.27123265 43.19960788 -67.34375 36.83203125 C-64.46803656 30.42365259 -59.81969901 25.78389121 -53.9375 22.0625 C-48.35185792 19.95179654 -41.85784641 20.78063543 -36 21 C-35.9175 19.824375 -35.835 18.64875 -35.75 17.4375 C-34.73295886 9.73510841 -30.76533894 5.21771315 -24.93359375 0.4453125 C-17.72344724 -4.94408995 -7.68160612 -4.37189607 0 0 Z " fill="#B2DB7E" transform="translate(412,107)"/>
<path d="M0 0 C5.59691379 3.56167241 9.54408124 8.53487186 13.1875 14 C15.81688641 14.25118206 15.81688641 14.25118206 18.8125 14 C27.64340037 13.82085286 32.93402624 16.02090026 39.421875 22.0234375 C42.35315433 25.30491391 45.1875 29.46699323 45.1875 34 C45.79335937 33.71125 46.39921875 33.4225 47.0234375 33.125 C54.57985768 29.7769246 61.28821415 28.55491067 69.3125 31.0625 C75.98444726 33.95277675 81.65455374 39.05788743 84.5625 45.76953125 C86.51978472 52.75459109 85.76120147 59.41509707 82.5390625 65.859375 C80.56087178 68.99246319 78.21426504 71.68040965 75.67578125 74.37109375 C74.10057809 75.94621697 74.10057809 75.94621697 73.1875 78 C57.82769723 78.23402653 42.46797683 78.41014946 27.10678959 78.51812172 C19.97349875 78.56959802 12.84131817 78.63972088 5.70874023 78.75439453 C-0.51110827 78.8543458 -6.73015256 78.91864609 -12.95078188 78.94088495 C-16.24253683 78.95387871 -19.53146695 78.98951931 -22.82261467 79.05730057 C-26.50543309 79.13011855 -30.18351867 79.13988285 -33.86694336 79.13525391 C-35.48751396 79.18918304 -35.48751396 79.18918304 -37.14082336 79.24420166 C-41.87495006 79.18000007 -44.71208811 78.89182399 -48.46112251 75.85343552 C-54.67130665 69.11026021 -58.88979724 62.73696062 -59.3125 53.4375 C-58.95001273 45.5506558 -56.1614833 41.0063075 -50.5 35.625 C-45.33816068 31.29516768 -41.60242798 30 -34.8125 30 C-34.85890625 29.0821875 -34.9053125 28.164375 -34.953125 27.21875 C-35.3535628 13.60386473 -35.3535628 13.60386473 -30.8125 8 C-22.35942359 -0.83157237 -11.9643486 -6.09504551 0 0 Z " fill="#B3DC7E" transform="translate(154.8125,314)"/>
<path d="M0 0 C15.11384981 9.29901974 23.82150297 25.20526799 28 42 C28.29777344 43.051875 28.59554687 44.10375 28.90234375 45.1875 C34.72050906 67.9239248 31.06653182 94.7750904 19.75 115.3125 C13.7853645 124.93371639 6.32579234 134.0918311 -4.71875 137.62890625 C-5.52248047 137.88873291 -6.32621094 138.14855957 -7.15429688 138.41625977 C-7.76337891 138.60889404 -8.37246094 138.80152832 -9 139 C-9.32773015 131.34176282 -9.57476992 123.68426985 -9.72537041 116.0205698 C-9.79775182 112.45931561 -9.89543885 108.90293162 -10.05615234 105.34448242 C-11.25736925 78.02959054 -11.25736925 78.02959054 -2.32421875 68.00390625 C-0.52953395 66.16959701 1.30417388 64.41862042 3.21122742 62.70178223 C6.18085364 59.87657282 8.59241205 56.63434665 11.0625 53.375 C11.90738279 52.29934617 12.75242923 51.22382086 13.59765625 50.1484375 C16.1418879 46.8140461 18.57992631 43.42520234 21 40 C20.43796875 39.74476563 19.8759375 39.48953125 19.296875 39.2265625 C16.70613518 37.84307219 14.54892155 36.20061417 12.25 34.375 C11.45078125 33.74335938 10.6515625 33.11171875 9.828125 32.4609375 C9.22484375 31.97882813 8.6215625 31.49671875 8 31 C7.5968457 31.87180908 7.5968457 31.87180908 7.18554688 32.76123047 C5.98573456 35.02693865 4.65370759 36.83937 3.03125 38.8203125 C2.46019531 39.52027344 1.88914062 40.22023437 1.30078125 40.94140625 C0.70652344 41.66199219 0.11226563 42.38257813 -0.5 43.125 C-1.09425781 43.85332031 -1.68851562 44.58164063 -2.30078125 45.33203125 C-6.67992666 50.67992666 -6.67992666 50.67992666 -9 53 C-9 44.75 -9 36.5 -9 28 C-14.28 28 -19.56 28 -25 28 C-25 48.13 -25 68.26 -25 89 C-27.56198388 85.79752014 -29.94276708 82.72413239 -32.234375 79.35546875 C-32.80800781 78.51435547 -33.38164062 77.67324219 -33.97265625 76.80664062 C-34.85244141 75.51016602 -34.85244141 75.51016602 -35.75 74.1875 C-36.35199219 73.30384766 -36.95398438 72.42019531 -37.57421875 71.50976562 C-39.05128226 69.34106126 -40.52648227 67.17111439 -42 65 C-45.26648833 66.2652057 -47.99911801 67.52875459 -50.8125 69.625 C-52.3903125 70.800625 -52.3903125 70.800625 -54 72 C-52.33924441 77.2483547 -49.07739595 81.3078548 -45.8984375 85.71875 C-44.67175028 87.47335574 -43.44788407 89.22993644 -42.2265625 90.98828125 C-40.31696569 93.7357027 -38.39705164 96.46975633 -36.42578125 99.17333984 C-26.64832194 112.63222083 -22.95601887 122.31703872 -25 139 C-26.44336625 138.53957362 -27.88501821 138.07377094 -29.32592773 137.60571289 C-30.12892807 137.34689835 -30.93192841 137.0880838 -31.75926208 136.82142639 C-44.11051814 132.29361097 -52.12572412 118.79104918 -57.46484375 107.58984375 C-62.8934923 94.89537041 -65.35084263 82.37321207 -65.25 68.625 C-65.25773438 67.57828125 -65.26546875 66.5315625 -65.2734375 65.453125 C-65.22003152 43.82370495 -58.34138359 22.81487737 -43.12890625 7.0625 C-30.64071152 -4.5964987 -15.5767384 -7.31373174 0 0 Z " fill="#9ED166" transform="translate(305,188)"/>
<path d="M0 0 C4.99758139 3.02198808 8.14363482 7.6275616 11.33203125 12.41015625 C13.3467313 13.27648871 13.3467313 13.27648871 15.64453125 13.84765625 C20.91088215 15.48757932 24.11906061 17.38853851 27.01953125 22.22265625 C28.41045215 25.60060701 29.41362714 28.87783274 30.33203125 32.41015625 C30.97269531 32.19359375 31.61335938 31.97703125 32.2734375 31.75390625 C40.30753055 29.16767063 45.92017595 28.3260943 53.6328125 32.14453125 C55.33203125 33.41015625 55.33203125 33.41015625 57.33203125 37.41015625 C22.35203125 37.41015625 -12.62796875 37.41015625 -48.66796875 37.41015625 C-46.38783127 32.84988129 -46.08001901 32.97275727 -41.60546875 31.47265625 C-38.83130881 30.33320501 -38.83130881 30.33320501 -36.66796875 28.41015625 C-35.82655198 25.07120082 -35.79276128 22.06695002 -35.76953125 18.62890625 C-35.58686505 12.83979299 -33.51505722 9.34700977 -29.578125 5.21875 C-20.50572112 -3.21964229 -11.54961873 -5.07455689 0 0 Z " fill="#9ED167" transform="translate(363.66796875,354.58984375)"/>
<path d="M0 0 C4.39357848 -0.09244233 8.78370961 -0.17187966 13.17749023 -0.21972656 C14.66816718 -0.23969458 16.1587673 -0.2668792 17.64916992 -0.30175781 C27.13843596 -0.51807363 35.50385605 -0.63578992 43.12109375 5.7890625 C46.42264969 10.39360639 47.87762067 14.37464021 48.67578125 19.99609375 C48.79841185 21.99344286 48.79841185 21.99344286 50 23 C52.21687994 23.15873955 54.43855298 23.25133837 56.66015625 23.31640625 C57.65685585 23.3475779 57.65685585 23.3475779 58.6736908 23.37937927 C60.80318543 23.44493658 62.93280668 23.50378785 65.0625 23.5625 C66.50326847 23.60567939 67.94402399 23.64929349 69.38476562 23.69335938 C72.92304903 23.80144527 76.46142397 23.90047093 80 24 C80 29.28 80 34.56 80 40 C75.44574119 40.09231606 70.8947844 40.17179505 66.34033203 40.21972656 C64.79432113 40.23972503 63.24838473 40.26693331 61.70263672 40.30175781 C51.59311751 40.52365817 44.14602894 40.57424795 36.1875 33.5 C33.27385321 29.70342994 32.55058074 25.10826829 31.578125 20.51171875 C31.25087935 18.07405252 31.25087935 18.07405252 30 17 C27.78312006 16.84126045 25.56144702 16.74866163 23.33984375 16.68359375 C22.34314415 16.6524221 22.34314415 16.6524221 21.3263092 16.62062073 C19.19681457 16.55506342 17.06719332 16.49621215 14.9375 16.4375 C13.49673153 16.39432061 12.05597601 16.35070651 10.61523438 16.30664062 C7.07695097 16.19855473 3.53857603 16.09952907 0 16 C0 10.72 0 5.44 0 0 Z " fill="#000101" transform="translate(144,424)"/>
</svg>
