<?xml version="1.0" encoding="UTF-8"?>
<svg version="1.1" xmlns="http://www.w3.org/2000/svg" width="1026" height="1024">
<path d="M0 0 C0.90621094 0.72445312 1.81242188 1.44890625 2.74609375 2.1953125 C5.51782881 4.44005584 8.26366298 6.71224282 11 9 C11.52142578 9.43505859 12.04285156 9.87011719 12.58007812 10.31835938 C27.17204671 22.53288797 41.69158058 35.36462443 54.1015625 49.82421875 C56.26745005 52.30652198 58.50876957 54.71055145 60.75 57.125 C66.53254149 63.47531369 71.78553631 70.18053966 77 77 C77.72340576 77.93803467 77.72340576 77.93803467 78.46142578 78.89501953 C124.54807316 138.72707411 154.31732169 209.56939509 165.25 284.25 C165.40114258 285.27617432 165.55228516 286.30234863 165.70800781 287.35961914 C168.44818981 307.34964887 169.38066175 327.33868705 169.3125 347.5 C169.30976578 349.19446259 169.30976578 349.19446259 169.30697632 350.92315674 C169.08066113 434.64798131 144.97828667 517.8060835 99 588 C98.54592773 588.69561035 98.09185547 589.3912207 97.62402344 590.10791016 C84.02514072 610.77801056 68.461363 629.98638885 51.66015625 648.1171875 C49.01148929 650.98754905 46.41291036 653.89845236 43.8125 656.8125 C40.37340653 660.60473893 36.83399773 664.04131628 32.91796875 667.33203125 C30.89707018 669.08951331 29.05048718 670.95155076 27.1875 672.875 C23.34796529 676.76682409 19.22434662 680.18108867 14.9609375 683.59765625 C12.43273323 685.64890378 9.96499876 687.75307205 7.5090332 689.88964844 C-63.35688096 751.23264575 -160.97334337 786.27026482 -305.80200195 788.22851562 C-357.50205978 784.25665481 -407.77155754 771.37825089 -455 750 C-455.9163623 749.58927246 -456.83272461 749.17854492 -457.77685547 748.75537109 C-500.56720144 729.45502067 -539.18200813 702.2640187 -573.49414062 670.38818359 C-575.04234465 668.96096439 -576.60478868 667.55097684 -578.171875 666.14453125 C-583.19903757 661.62047314 -588.01428145 657.07685982 -592.3671875 651.8828125 C-594.11099315 649.87201268 -595.96349611 648.03903514 -597.875 646.1875 C-601.78949406 642.32570106 -605.23005352 638.17776971 -608.66796875 633.890625 C-610.95994728 631.04964659 -613.31813118 628.27654349 -615.6875 625.5 C-665.93915973 565.13577716 -698.0278408 488.98108122 -709.3125 411.5 C-709.45977539 410.48945557 -709.60705078 409.47891113 -709.75878906 408.43774414 C-712.44421451 388.51245336 -713.3804232 368.59075101 -713.3125 348.5 C-713.31067719 347.37035828 -713.30885437 346.24071655 -713.30697632 345.07684326 C-713.2568899 326.54747888 -712.5597098 308.36997592 -710 290 C-709.82839355 288.76314453 -709.65678711 287.52628906 -709.47998047 286.25195312 C-699.86236902 219.3841988 -675.72558321 154.54705759 -637 99 C-636.59185059 98.4131543 -636.18370117 97.82630859 -635.76318359 97.22167969 C-623.61921173 79.83253543 -610.29418723 63.66486272 -596 48 C-595.09365826 47.00008315 -594.18741289 46.00007893 -593.28125 45 C-586.24359727 37.25275974 -579.12605394 29.72177833 -571.17578125 22.8984375 C-568.69347802 20.73254995 -566.28944855 18.49123043 -563.875 16.25 C-558.11696094 11.00607157 -552.07689297 6.20799344 -545.90087891 1.46826172 C-543.96703787 -0.02546035 -542.05109572 -1.54003039 -540.13671875 -3.05859375 C-477.06616236 -52.70711025 -400.11041755 -81.02148085 -321 -91 C-319.95328125 -91.13422363 -318.9065625 -91.26844727 -317.828125 -91.40673828 C-211.74432062 -104.28679035 -101.7154095 -72.635097 0 0 Z " fill="#000000" transform="translate(785,164)"/>
<path d="M0 0 C1.24837646 0.00281982 2.49675293 0.00563965 3.78295898 0.00854492 C22.2983386 0.07144571 40.5042058 0.30178168 58.8125 3.3125 C59.89328827 3.48782257 59.89328827 3.48782257 60.99591064 3.66668701 C123.8495448 13.94918256 184.24188981 38.80160014 233.8125 79.3125 C234.73160156 80.04210937 235.65070312 80.77171875 236.59765625 81.5234375 C242.58502976 86.32344158 248.27067775 91.39124483 253.890625 96.609375 C256.60943008 99.12463317 259.35956969 101.59875299 262.125 104.0625 C268.1245158 109.45823067 273.69439394 115.06001374 278.953125 121.1796875 C280.21087046 122.62239552 281.4931258 124.04403876 282.796875 125.4453125 C290.06931829 133.27513283 296.46201327 141.73218638 302.8125 150.3125 C303.32748047 151.00794922 303.84246094 151.70339844 304.37304688 152.41992188 C312.60360602 163.61644828 319.87285692 175.27975425 326.8125 187.3125 C327.28042969 188.11526367 327.74835937 188.91802734 328.23046875 189.74511719 C353.31245711 232.97114894 373.8125 288.73889947 373.8125 339.3125 C297.2525 339.3125 220.6925 339.3125 141.8125 339.3125 C139.8325 332.3825 137.8525 325.4525 135.8125 318.3125 C134.19555923 314.23328772 132.63480332 310.44977631 130.6875 306.5625 C130.22013428 305.61133301 129.75276855 304.66016602 129.27124023 303.68017578 C117.53337863 280.47729013 99.64401488 261.32716888 77.8125 247.3125 C76.75546875 246.631875 75.6984375 245.95125 74.609375 245.25 C42.89083801 226.00842306 3.2184537 220.25996051 -32.75195312 228.93066406 C-71.29461916 238.96812106 -103.88798644 262.4429195 -124.2277832 296.88598633 C-131.27473218 309.28812969 -136.31123408 322.61900095 -139.6796875 336.4765625 C-140.1875 338.3125 -140.1875 338.3125 -141.1875 339.3125 C-144.09530605 339.41045811 -146.97936546 339.44241996 -149.8875885 339.43275452 C-151.27319439 339.43403615 -151.27319439 339.43403615 -152.68679231 339.43534368 C-155.80692049 339.43700132 -158.92699585 339.4314725 -162.04711914 339.42602539 C-164.2738393 339.42574355 -166.50055956 339.42590118 -168.72727966 339.4264679 C-174.79315077 339.42675601 -180.85900229 339.42085709 -186.92486882 339.41389394 C-193.25634364 339.40766266 -199.58781885 339.40705678 -205.91929626 339.40586853 C-216.5530536 339.40310883 -227.18680315 339.39685331 -237.82055664 339.38793945 C-248.77530888 339.37876604 -259.73005915 339.37168486 -270.68481445 339.36743164 C-271.69701187 339.36703756 -271.69701187 339.36703756 -272.72965772 339.36663551 C-276.11478717 339.36533051 -279.49991664 339.36406679 -282.88504612 339.36282361 C-310.98586911 339.35245014 -339.08668411 339.33475696 -367.1875 339.3125 C-367.1948789 337.87650314 -367.20013453 336.44049527 -367.20449829 335.00448608 C-367.2076536 334.204811 -367.21080891 333.40513592 -367.21405983 332.58122826 C-366.33808041 257.7554751 -323.37194034 175.7609733 -272.890625 122.19921875 C-270.75994846 119.92382863 -268.70459624 117.62449436 -266.6875 115.25 C-259.51604163 106.97389157 -251.5302594 99.38986732 -243.1875 92.3125 C-242.21941406 91.45527344 -241.25132812 90.59804687 -240.25390625 89.71484375 C-185.47530654 41.42147041 -116.19670317 12.03004075 -44.1875 2.3125 C-42.9914917 2.13227295 -41.7954834 1.9520459 -40.56323242 1.76635742 C-27.08978997 -0.15416583 -13.58498367 -0.04405746 0 0 Z " fill="#FE1B1B" transform="translate(512.1875,142.6875)"/>
<path d="M0 0 C76.56 0 153.12 0 232 0 C232.99 3.96 233.98 7.92 235 12 C246.76963715 49.52547442 272.46729755 80.45748845 307.35546875 98.74609375 C342.3148789 116.20729395 382.27529058 118.72268495 419.296875 106.671875 C426.13924445 104.3168528 432.57527135 101.31085663 439 98 C439.94875 97.52949219 440.8975 97.05898438 441.875 96.57421875 C455.13062019 89.73447287 466.45739495 80.44860377 477 70 C477.78890625 69.22398437 478.5778125 68.44796875 479.390625 67.6484375 C497.25453295 48.94916695 507.80667898 24.77328408 514 0 C588.91 0 663.82 0 741 0 C736.19863026 72.02054604 708.00404563 141.68840521 663 198 C662.24074219 198.95261719 661.48148438 199.90523437 660.69921875 200.88671875 C655.66860716 207.11633621 650.40762574 213.09674899 645 219 C644.08949168 220.00358694 643.17934964 221.0075063 642.26953125 222.01171875 C634.5706392 230.48968914 626.69862358 238.54403693 618 246 C617.03835938 246.85078125 616.07671875 247.7015625 615.0859375 248.578125 C600.09576673 261.76757979 584.01970094 273.56714436 567 284 C566.31373535 284.42087891 565.6274707 284.84175781 564.92041016 285.27539062 C559.99689865 288.27301138 555.02021478 291.16759189 550 294 C549.29246582 294.40041504 548.58493164 294.80083008 547.85595703 295.21337891 C507.41575623 317.86463507 462.73801797 330.67103419 417 337 C416.31858948 337.09462524 415.63717896 337.18925049 414.93511963 337.28674316 C401.65504109 339.06888393 388.46237609 339.3101518 375.07617188 339.26074219 C371.6365386 339.25003592 368.19742991 339.26069455 364.7578125 339.2734375 C351.05922684 339.28252177 337.59940671 338.65652125 324 337 C322.79102051 336.85401367 321.58204102 336.70802734 320.33642578 336.55761719 C317.29987563 336.16140423 314.27556511 335.72241368 311.25 335.25 C309.63520752 334.99839111 309.63520752 334.99839111 307.98779297 334.74169922 C268.38967596 328.29281362 230.4584972 314.57842486 195 296 C194.3076123 295.6385791 193.61522461 295.2771582 192.90185547 294.90478516 C169.11034854 282.37584889 147.26679279 266.61348008 127 249 C126.32195312 248.4225 125.64390625 247.845 124.9453125 247.25 C108.94097557 233.51237174 93.99934427 218.63215765 81 202 C80.53303711 201.41089844 80.06607422 200.82179688 79.58496094 200.21484375 C65.808835 182.80786904 53.79260128 164.38679179 43 145 C42.64244629 144.3699707 42.28489258 143.73994141 41.91650391 143.09082031 C18.56228916 101.91688222 0 47.67955472 0 0 Z " fill="#FEFEFE" transform="translate(140,542)"/>
<path d="M0 0 C12.11247391 2.47714689 23.79622103 5.58539033 35.5 9.5625 C36.65971817 9.95308594 36.65971817 9.95308594 37.84286499 10.3515625 C103.87856252 32.6552845 165.87311351 73.63539871 209 129 C209.69826904 129.88147705 209.69826904 129.88147705 210.41064453 130.78076172 C228.34256463 153.43732808 243.64569388 177.87347839 256 204 C256.35126953 204.73444336 256.70253906 205.46888672 257.06445312 206.22558594 C274.93608312 243.81274427 290 288.97952342 290 331 C258.32 331 226.64 331 194 331 C191.03 308.23 191.03 308.23 188 285 C186.16813124 273.4638713 186.16813124 273.4638713 184 262 C183.85385254 261.28424805 183.70770508 260.56849609 183.55712891 259.83105469 C169.23470271 191.41744133 136.25695526 125.00558647 89.09765625 73.31640625 C87.29408387 71.32475183 85.54893904 69.29978143 83.8125 67.25 C80.38791203 63.32132548 76.7381901 59.62921146 73.0625 55.9375 C72.20265503 55.0707666 72.20265503 55.0707666 71.32543945 54.18652344 C67.04848406 49.92467669 62.58645056 45.9251199 58 42 C57.3716626 41.45964111 56.7433252 40.91928223 56.09594727 40.36254883 C38.84943984 25.6341694 20.34134713 12.17067357 0 2 C0 1.34 0 0.68 0 0 Z " fill="#DE1717" transform="translate(596,151)"/>
<path d="M0 0 C30.03 0 60.06 0 91 0 C86.19863026 72.02054604 58.00404563 141.68840521 13 198 C12.24074219 198.95261719 11.48148438 199.90523437 10.69921875 200.88671875 C5.66860716 207.11633621 0.40762574 213.09674899 -5 219 C-5.91050832 220.00358694 -6.82065036 221.0075063 -7.73046875 222.01171875 C-15.4293608 230.48968914 -23.30137642 238.54403693 -32 246 C-32.96164062 246.85078125 -33.92328125 247.7015625 -34.9140625 248.578125 C-49.90423327 261.76757979 -65.98029906 273.56714436 -83 284 C-83.68626465 284.42087891 -84.3725293 284.84175781 -85.07958984 285.27539062 C-90.00310135 288.27301138 -94.97978522 291.16759189 -100 294 C-100.70753418 294.40041504 -101.41506836 294.80083008 -102.14404297 295.21337891 C-126.19406967 308.68421498 -151.65817475 318.17383336 -178 326 C-179.06847168 326.32210449 -180.13694336 326.64420898 -181.23779297 326.97607422 C-182.22021973 327.26111816 -183.20264648 327.54616211 -184.21484375 327.83984375 C-185.49862915 328.21484009 -185.49862915 328.21484009 -186.80834961 328.59741211 C-189 329 -189 329 -192 328 C-190.9584375 327.40574219 -189.916875 326.81148437 -188.84375 326.19921875 C-156.99029211 307.85321612 -126.93175162 284.01422689 -103 256 C-102.10761797 254.98232945 -101.21431303 253.96546778 -100.3203125 252.94921875 C-55.63946738 201.8949021 -26.74203035 138.61925306 -11 73 C-10.83193848 72.32114746 -10.66387695 71.64229492 -10.49072266 70.94287109 C-7.6702653 59.40064958 -6.00547151 47.69416115 -4.375 35.9375 C-4.27058594 35.18526154 -4.16617188 34.43302307 -4.05859375 33.6579895 C-2.51500587 22.45461279 -1.24930891 11.24378022 0 0 Z " fill="#DEDEDE" transform="translate(790,542)"/>
<path d="M0 0 C14.79729456 12.28397656 25.18087566 27.63044856 30.11206055 46.26513672 C30.44850586 47.52970703 30.44850586 47.52970703 30.79174805 48.81982422 C35.68296312 70.86379354 30.69637346 94.31685109 19.0456543 113.35888672 C5.7674536 133.31642473 -12.97959287 145.50607014 -36.0090332 151.01123047 C-57.11196636 155.07487629 -79.32207825 151.11831731 -97.63793945 139.95263672 C-118.7821091 125.61601131 -132.09969248 106.58888569 -137.20043945 81.57763672 C-140.48770428 57.53548417 -135.57219864 36.04306761 -121.69262695 16.11279297 C-107.68013229 -1.79206132 -87.73178243 -14.37421042 -65.00073242 -17.5078125 C-41.97569098 -19.98219296 -18.31030877 -14.60851786 0 0 Z " fill="#FEFEFE" transform="translate(565.887939453125,444.73486328125)"/>
</svg>
